<svg width="84" height="83" viewBox="0 0 84 83" fill="none" xmlns="http://www.w3.org/2000/svg">
<rect width="84" height="83" rx="41.5" transform="matrix(-1 0 0 1 84 0)" fill="white"/>
<path fill-rule="evenodd" clip-rule="evenodd" d="M41.5478 69.3949C25.8593 69.3949 13.0956 56.7454 13.0956 41.1974C13.0956 25.6493 25.8593 13 41.5478 13C57.2364 13 70 25.6493 70 41.1974C70 56.7454 57.2364 69.3949 41.5478 69.3949ZM41.5478 16.6514C27.8906 16.6514 16.7801 27.6632 16.7801 41.1974C16.7801 54.7317 27.8906 65.7433 41.5478 65.7433C55.2049 65.7433 66.3156 54.7317 66.3156 41.1974C66.3156 27.6632 55.2049 16.6514 41.5478 16.6514ZM55.3644 44.7004H36.6668C36.6668 44.7004 41.1993 49.1929 44.0069 51.9742C45.2055 53.1627 45.2055 55.0895 44.0069 56.278C43.8091 56.474 43.609 56.6717 43.4112 56.8677C42.2126 58.0563 40.2684 58.0563 39.069 56.8677C35.3944 53.2266 28.1022 45.999 25.5598 43.4789C24.9838 42.9087 24.6603 42.1346 24.6603 41.3276V41.0671C24.6603 40.2608 24.9838 39.4867 25.5598 38.9158C28.1022 36.3962 35.3944 29.1688 39.069 25.5275C40.2684 24.339 42.2126 24.339 43.4112 25.5275C43.609 25.7229 43.8091 25.922 44.0069 26.1172C45.2055 27.3059 45.2055 29.2321 44.0069 30.4206C41.1993 33.2024 36.6668 37.6949 36.6668 37.6949H55.3644C57.0604 37.6949 58.4348 39.0576 58.4348 40.7379V41.6575C58.4348 43.3384 57.0604 44.7004 55.3644 44.7004V44.7004Z" fill="#F1682B"/>
</svg>
