<svg xmlns="http://www.w3.org/2000/svg" width="84" height="83" fill="none" viewBox="0 0 84 83"><rect width="84" height="83" fill="#fff" rx="41.5"/><path fill="#F1682B" fill-rule="evenodd" d="M42.4522 69.3949C58.1407 69.3949 70.9044 56.7454 70.9044 41.1974C70.9044 25.6493 58.1407 13 42.4522 13C26.7636 13 14 25.6493 14 41.1974C14 56.7454 26.7636 69.3949 42.4522 69.3949ZM42.4522 16.6514C56.1094 16.6514 67.2199 27.6632 67.2199 41.1974C67.2199 54.7317 56.1094 65.7433 42.4522 65.7433C28.7951 65.7433 17.6844 54.7317 17.6844 41.1974C17.6844 27.6632 28.7951 16.6514 42.4522 16.6514ZM28.6356 44.7004H47.3332C47.3332 44.7004 42.8007 49.1929 39.9931 51.9742C38.7945 53.1627 38.7945 55.0895 39.9931 56.278C40.1909 56.474 40.391 56.6717 40.5888 56.8677C41.7874 58.0563 43.7316 58.0563 44.931 56.8677C48.6056 53.2266 55.8978 45.999 58.4402 43.4789C59.0162 42.9087 59.3397 42.1346 59.3397 41.3276V41.0671C59.3397 40.2608 59.0162 39.4867 58.4402 38.9158C55.8978 36.3962 48.6056 29.1688 44.931 25.5275C43.7316 24.339 41.7874 24.339 40.5888 25.5275C40.391 25.7229 40.1909 25.922 39.9931 26.1172C38.7945 27.3059 38.7945 29.2321 39.9931 30.4206C42.8007 33.2024 47.3332 37.6949 47.3332 37.6949H28.6356C26.9396 37.6949 25.5652 39.0576 25.5652 40.7379V41.6575C25.5652 43.3384 26.9396 44.7004 28.6356 44.7004V44.7004Z" clip-rule="evenodd"/></svg>