<svg xmlns="http://www.w3.org/2000/svg" width="36" height="39" fill="none" viewBox="0 0 36 39"><path fill="#F1682B" fill-rule="evenodd" d="M25.1792 16.6546C25.1622 16.7714 25.1354 16.9237 25.0788 17.0666C25.0458 17.1348 25.0024 17.2031 24.9426 17.2813C24.887 17.3464 24.8292 17.4026 24.7666 17.4531C24.6598 17.5313 24.573 17.5849 24.485 17.6272C24.438 17.6438 24.3908 17.6557 24.3402 17.6645C24.2964 17.6691 24.2526 17.673 24.2086 17.6768C24.1574 17.6812 24.1062 17.6855 24.0552 17.6916C23.9894 17.6998 23.9242 17.7003 23.8586 17.7003L23.8258 17.7023V17.7001C23.8004 17.6994 23.7752 17.6994 23.7498 17.6994C23.6922 17.7003 23.6344 17.7033 23.5764 17.7062C23.5348 17.7079 23.4932 17.7101 23.4516 17.7115C23.3362 17.7161 23.2226 17.7274 23.1082 17.7401C23.0392 17.7483 22.9698 17.7514 22.9 17.7514C22.7962 17.7514 22.6922 17.7446 22.5886 17.738C22.5396 17.7347 22.4906 17.7313 22.4418 17.729C22.241 17.7191 22.027 17.7074 21.8112 17.682L21.7718 17.6754C21.6756 17.6596 21.576 17.643 21.4756 17.643L21.4416 17.6436L21.3956 17.6461C21.3476 17.6487 21.2998 17.651 21.2512 17.651C21.1786 17.65 21.1208 17.6436 21.0636 17.6374L20.9044 17.6175L20.7368 17.5968L20.6144 17.5753C20.5858 17.5705 20.5572 17.5666 20.5284 17.5625L20.5204 17.5131C20.512 17.4168 20.5208 17.3176 20.5294 17.2216C20.541 17.099 20.5462 16.987 20.5482 16.8404C20.5524 16.5807 20.554 16.3217 20.549 16.0621C20.5482 16.0031 20.5482 15.945 20.5532 15.8868C20.5556 15.8517 20.5606 15.8163 20.5658 15.7812C20.5692 15.7574 20.5726 15.7338 20.5752 15.7102C20.588 15.6045 20.5954 15.4988 20.6028 15.3925L20.6086 15.3079L20.6194 15.1519C20.624 15.0838 20.6286 15.016 20.634 14.9477C20.6428 14.8239 20.64 14.7034 20.6356 14.57C20.6324 14.4758 20.6418 14.3836 20.6528 14.2978C20.6692 14.1806 20.683 14.0644 20.692 13.9464L20.695 13.907C20.7022 13.815 20.7092 13.7231 20.7206 13.6311C20.7358 13.5303 20.7614 13.4322 20.799 13.3312C20.8062 13.3154 20.8144 13.2996 20.8234 13.2846C20.888 13.2965 20.9518 13.3093 21.0164 13.3228C21.038 13.3275 21.0614 13.33 21.0838 13.33C21.179 13.33 21.2648 13.2867 21.3134 13.2144L21.3554 13.2081C21.4096 13.2025 21.4634 13.1988 21.5176 13.1988C21.552 13.1988 21.5866 13.2003 21.6212 13.2034C21.6634 13.2073 21.7054 13.2124 21.7472 13.2173C21.8126 13.2249 21.8776 13.2325 21.9432 13.237C21.998 13.2409 22.053 13.2419 22.108 13.2419L22.1904 13.2413L22.2726 13.2409C22.3692 13.2409 22.4704 13.2471 22.591 13.2608C22.6644 13.2711 22.738 13.2826 22.8116 13.2941L22.9586 13.3165C23.0764 13.3327 23.195 13.3435 23.3134 13.354L23.4662 13.3682C23.5052 13.3747 23.5426 13.3819 23.582 13.3899C23.6182 13.3977 23.6534 13.4111 23.6884 13.4248C23.714 13.4343 23.7394 13.4441 23.7656 13.4519C23.8658 13.4811 23.9728 13.4926 24.0762 13.5037L24.1132 13.5076C24.2 13.5217 24.2908 13.5457 24.3906 13.5808C24.4752 13.6172 24.5646 13.657 24.6442 13.7091C24.6674 13.7301 24.6904 13.7532 24.7116 13.7771C24.747 13.8288 24.7794 13.8859 24.81 13.9519C24.8322 14.009 24.8484 14.0702 24.8598 14.1395C24.8828 14.3403 24.882 14.5351 24.8574 14.7346C24.8478 14.7907 24.835 14.8403 24.8182 14.8865C24.7924 14.9407 24.763 14.9902 24.7286 15.038C24.6894 15.0838 24.6438 15.1281 24.5934 15.169C24.5626 15.1895 24.5298 15.2071 24.4958 15.2229C24.4544 15.2428 24.4086 15.2693 24.3828 15.3163C24.3704 15.3381 24.3322 15.4147 24.359 15.4812C24.3754 15.5232 24.391 15.5489 24.4232 15.5869C24.482 15.6581 24.5712 15.6862 24.6576 15.7137L24.6872 15.723C24.7434 15.7414 24.7982 15.7628 24.853 15.7843C24.8822 15.7977 24.9114 15.8114 24.9392 15.8289C24.9486 15.8373 24.9584 15.8467 24.9682 15.857C25.024 15.9295 25.0874 16.015 25.1336 16.1076C25.1548 16.1634 25.17 16.222 25.1818 16.2919C25.1948 16.4141 25.194 16.5329 25.1792 16.6546ZM19.236 17.2704C19.2174 17.3646 19.1878 17.4599 19.1406 17.5796C19.1178 17.6268 19.092 17.6719 19.066 17.7169C19.0452 17.7534 19.0242 17.7897 19.005 17.8273L18.9694 17.8957C18.9338 17.9653 18.897 18.0373 18.8506 18.1036C18.8272 18.1293 18.802 18.1549 18.775 18.1773C18.712 18.2208 18.6582 18.2578 18.6138 18.3048L18.5808 18.3399C18.5456 18.3776 18.51 18.4154 18.4704 18.4488C18.3546 18.5305 18.2624 18.5849 18.1708 18.6252C18.0482 18.6763 17.9368 18.7206 17.8176 18.7463C17.65 18.7832 17.4842 18.8105 17.3584 18.83C17.2752 18.8403 17.1926 18.8506 17.1102 18.8618C17.0546 18.867 16.999 18.8692 16.9432 18.8692C16.8308 18.8692 16.7182 18.8606 16.6056 18.8514C16.5154 18.844 16.425 18.8386 16.334 18.8386L16.2218 18.8391C16.1648 18.8391 16.1078 18.8382 16.0508 18.8349C15.9506 18.8189 15.85 18.7988 15.7504 18.7791C15.695 18.768 15.64 18.7547 15.5848 18.7414C15.5206 18.726 15.456 18.7104 15.391 18.6984C15.2272 18.6681 15.0582 18.6607 14.8948 18.6535C14.7854 18.6486 14.676 18.6438 14.5672 18.6324C14.4706 18.6159 14.3728 18.5999 14.2744 18.5862C14.216 18.5775 14.1768 18.571 14.137 18.5599C14.1132 18.5466 14.0894 18.5326 14.0654 18.5184L14.0132 18.4876C13.9786 18.4675 13.9426 18.4493 13.9068 18.4314C13.8836 18.4199 13.8604 18.4082 13.8376 18.3961L13.7846 18.3659C13.7592 18.3511 13.7336 18.3364 13.7076 18.3228C13.672 18.3041 13.6454 18.29 13.6194 18.2734L13.6068 18.258L13.6074 18.2516C13.5966 18.1237 13.61 17.9946 13.6228 17.8698C13.6312 17.783 13.642 17.6966 13.653 17.6101C13.6604 17.5521 13.6678 17.494 13.6744 17.4357C13.6908 17.2938 13.7062 17.152 13.7144 17.01C13.7218 16.8772 13.7292 16.7458 13.743 16.6136C13.752 16.5627 13.7626 16.512 13.7772 16.4619C13.788 16.4516 13.7996 16.4403 13.8118 16.4301C13.827 16.4208 13.8416 16.412 13.8578 16.4042C13.8844 16.3962 13.9114 16.3892 13.939 16.3835C13.958 16.3825 13.977 16.382 13.996 16.382L14.0308 16.3827C14.084 16.3952 14.1338 16.4147 14.1858 16.4348C14.1852 16.4344 14.1846 16.4342 14.184 16.4338C14.1956 16.4387 14.2074 16.4432 14.219 16.4477L14.2876 16.475C14.3122 16.4865 14.3352 16.5001 14.3586 16.514L14.391 16.5331C14.4234 16.552 14.4562 16.5691 14.489 16.5865L14.5324 16.6097C14.6498 16.6713 14.7772 16.717 14.9456 16.7579L15.1312 16.8045L15.3172 16.8511C15.43 16.8786 15.546 16.8837 15.6582 16.8886L15.7434 16.8927C15.7724 16.8983 15.8012 16.9057 15.8302 16.9129L15.886 16.9268C15.9778 16.9494 16.076 16.9613 16.1702 16.9613C16.2708 16.9592 16.3798 16.9547 16.4882 16.9371C16.5266 16.9313 16.5646 16.9239 16.6026 16.9164C16.6416 16.9088 16.6806 16.901 16.7202 16.895L16.7194 16.8948C16.7626 16.8895 16.8066 16.8847 16.8498 16.8839C16.9322 16.8823 17.0116 16.8336 17.0522 16.7597C17.0904 16.6904 17.088 16.6136 17.046 16.5493C17.0224 16.5124 16.9994 16.4919 16.9696 16.4709L16.923 16.4311C16.873 16.3896 16.8172 16.3554 16.7478 16.3233C16.667 16.2854 16.5864 16.2595 16.501 16.2318L16.406 16.2004L16.3848 16.1932C16.2918 16.1618 16.2042 16.1318 16.1084 16.1119C16.067 16.1031 16.025 16.0961 15.9828 16.0889C15.908 16.0762 15.8304 16.0633 15.758 16.0403C15.6748 15.9997 15.5944 15.9547 15.5136 15.9099L15.4332 15.865C15.3664 15.8283 15.2956 15.7979 15.2254 15.7681C15.1624 15.741 15.11 15.7127 15.0578 15.6842L14.9862 15.646L14.9124 15.6096C14.8674 15.5875 14.8224 15.5655 14.7788 15.5409C14.7342 15.516 14.6932 15.4869 14.6518 15.4575L14.6212 15.4358C14.5502 15.3847 14.4692 15.3494 14.391 15.3151C14.3288 15.2876 14.2644 15.2595 14.206 15.2238C14.1298 15.1607 14.0576 15.0909 13.9916 15.0173C13.964 14.9776 13.9396 14.937 13.9184 14.8943L13.8834 14.8077C13.8534 14.733 13.8232 14.6587 13.7902 14.5852C13.7634 14.5255 13.7346 14.4674 13.7056 14.4093L13.6626 14.3222C13.6458 14.2746 13.6318 14.227 13.6212 14.1769C13.6132 14.0809 13.616 13.9782 13.6302 13.8542C13.6406 13.782 13.6496 13.7097 13.6586 13.6373L13.6678 13.5648C13.6942 13.4277 13.7442 13.2935 13.7944 13.1687C13.849 13.0584 13.918 12.9472 14.0048 12.8298C14.1156 12.6978 14.2266 12.5878 14.3444 12.4931C14.483 12.395 14.6264 12.315 14.7826 12.2489C14.9802 12.1735 15.1966 12.1064 15.4442 12.0442C15.7176 11.9734 15.9458 11.9258 16.1622 11.8946C16.2842 11.8812 16.4072 11.8743 16.5278 11.8743C16.6272 11.8743 16.7264 11.8792 16.8226 11.8882C16.9152 11.9038 17.0016 11.9276 17.0738 11.9486C17.1396 11.9683 17.2034 11.9948 17.267 12.0216C17.299 12.0352 17.3308 12.0485 17.363 12.0608C17.4748 12.1036 17.568 12.1319 17.6566 12.1493C17.6986 12.1579 17.7412 12.1651 17.7838 12.1721C17.8756 12.1871 17.9704 12.2027 18.0576 12.2337C18.2144 12.3024 18.35 12.3796 18.472 12.4701C18.4836 12.479 18.4942 12.487 18.504 12.4933C18.5112 12.5061 18.52 12.519 18.529 12.5317C18.5394 12.5471 18.55 12.5623 18.5588 12.5787C18.5916 12.6381 18.6202 12.7003 18.6486 12.7626C18.6708 12.8142 18.6928 12.8643 18.7182 12.9147L18.7374 12.9531L18.7566 12.9911C18.7802 13.056 18.7952 13.1079 18.8046 13.1586C18.8126 13.2518 18.8148 13.3454 18.8168 13.4392C18.8182 13.4983 18.8196 13.5576 18.8226 13.6165C18.8246 13.6609 18.8276 13.7058 18.8306 13.7508C18.8388 13.8772 18.8474 14.0078 18.8372 14.1357C18.8284 14.1839 18.8184 14.2325 18.8038 14.2793C18.7896 14.2787 18.774 14.2787 18.7584 14.2779L18.6708 14.2623C18.5964 14.2488 18.5222 14.2356 18.4464 14.2288C18.4292 14.2272 18.4122 14.2268 18.395 14.2268C18.367 14.2268 18.3392 14.2282 18.3116 14.2293L18.2744 14.2315C18.2522 14.2329 18.2302 14.2342 18.2078 14.2342C18.1498 14.194 18.0942 14.1634 18.0346 14.1381C17.9848 14.1162 17.9352 14.0964 17.8852 14.0761L17.8254 14.0519C17.7854 14.0343 17.7454 14.0154 17.707 13.9946C17.6862 13.9836 17.666 13.9714 17.6458 13.9593C17.619 13.9431 17.5922 13.9269 17.564 13.9132C17.431 13.8495 17.2814 13.8331 17.1366 13.8173L17.1026 13.8136L17.0244 13.8019C16.9722 13.7939 16.92 13.7859 16.8672 13.7801C16.8296 13.7754 16.7916 13.773 16.7536 13.7705L16.7086 13.7672L16.6446 13.7543C16.5874 13.742 16.5302 13.7299 16.47 13.7259C16.4514 13.7245 16.4326 13.7237 16.4136 13.7237C16.2766 13.7237 16.1544 13.7643 16.0698 13.838C16.041 13.8622 16.0214 13.8869 16.0096 13.9134C15.981 13.962 15.9662 14.0154 15.9652 14.0722C15.9686 14.1026 15.9726 14.132 15.9784 14.1617C15.9968 14.2627 16.0944 14.3477 16.183 14.3871C16.2424 14.4138 16.3036 14.4362 16.3648 14.4587L16.4438 14.4883C16.487 14.5072 16.531 14.5273 16.5744 14.5488C16.5972 14.5605 16.6198 14.5731 16.6424 14.5858C16.6722 14.6028 16.7022 14.6193 16.7328 14.634C16.829 14.6788 16.9084 14.7087 16.9824 14.7282L17.0424 14.7438C17.0882 14.7556 17.1336 14.7673 17.1792 14.7808C17.2208 14.7929 17.2616 14.8062 17.3022 14.8194C17.3828 14.8455 17.4626 14.8713 17.5462 14.8898C17.6754 14.9185 17.8094 14.9337 17.9392 14.9485C18.016 14.9596 18.0862 14.9696 18.1578 14.9719L18.181 14.9723C18.2178 14.9723 18.2548 14.9694 18.2914 14.9647C18.2966 14.9678 18.3032 14.9717 18.3096 14.9756L18.3392 14.993C18.4438 15.0534 18.5518 15.116 18.6518 15.1868C18.7078 15.2328 18.763 15.2872 18.8254 15.3584L18.841 15.373L18.8392 15.3744C18.8524 15.391 18.8654 15.4083 18.8784 15.4266C18.9188 15.4816 18.9556 15.5456 18.9876 15.6168C19.0666 15.8044 19.1188 15.9606 19.1518 16.1088C19.1646 16.1659 19.1758 16.2234 19.187 16.2811L19.2034 16.3636L19.2154 16.4221C19.2274 16.4787 19.2394 16.5356 19.249 16.5931C19.27 16.8047 19.2656 17.0325 19.236 17.2704ZM12.4382 17.8757L12.434 17.9355C12.429 18.0014 12.4272 18.0677 12.4256 18.134L12.4242 18.1906C12.4216 18.3202 12.4206 18.4497 12.4196 18.5794L12.4184 18.7093C12.4168 18.8588 12.4068 19.0141 12.3874 19.1839C12.3788 19.2354 12.3698 19.2888 12.3508 19.3403L12.271 19.4466L12.2408 19.4856C12.2188 19.5101 12.196 19.5331 12.1708 19.5546C12.1126 19.5963 12.0506 19.6344 11.9892 19.6724L11.9316 19.7081L11.8644 19.7512C11.8074 19.788 11.7506 19.8249 11.6884 19.8545C11.5746 19.8945 11.4468 19.9243 11.2862 19.9477C11.2128 19.9555 11.1392 19.9608 11.0658 19.9659L11.0216 19.9692C10.9046 19.9779 10.7902 19.9914 10.675 20.0064C10.5624 20.0201 10.4512 20.0327 10.3394 20.0386C10.3116 20.04 10.2836 20.0405 10.2558 20.0405C10.166 20.0405 10.0764 20.0337 9.98685 20.0265C9.78965 20.0119 9.59205 20.0015 9.39505 19.9912L9.30685 19.9867C9.18265 19.9803 9.05845 19.9754 8.93425 19.9731L8.88285 19.9717C8.81645 19.9698 8.74985 19.9678 8.68365 19.9678C8.64725 19.9678 8.61085 19.9684 8.57465 19.9699C8.45865 19.9742 8.33665 19.9844 8.20105 20.001C8.14385 20.0082 8.08685 20.0138 8.02945 20.0177C8.00925 20.0191 7.98865 20.0197 7.96825 20.0197C7.92705 20.0197 7.88565 20.0173 7.84445 20.0152C7.81585 20.0144 7.78725 20.0123 7.75865 20.0097C7.64485 19.9891 7.53925 19.9524 7.44225 19.9159C7.38985 19.8943 7.33765 19.8728 7.28365 19.8545C7.24665 19.8418 7.20705 19.834 7.16805 19.8266L7.13225 19.8192C7.00705 19.7941 6.87685 19.7728 6.73405 19.7551C6.59425 19.7301 6.43205 19.6995 6.27125 19.6513C6.21625 19.6349 6.16025 19.6217 6.10425 19.6082C6.07045 19.6002 6.03665 19.5922 6.00325 19.5837C5.93705 19.5661 5.87425 19.5454 5.81145 19.5222C5.77645 19.5041 5.74145 19.486 5.70965 19.4635L5.65345 19.4173C5.58745 19.3629 5.51925 19.3066 5.44565 19.2603C5.41585 19.2422 5.38565 19.2245 5.35565 19.2067C5.30325 19.1761 5.25085 19.1453 5.20065 19.1116C5.05305 18.9911 4.92625 18.8505 4.82185 18.7288C4.74645 18.6211 4.68365 18.5024 4.62285 18.3873C4.59665 18.3378 4.57065 18.2885 4.54345 18.2399C4.46065 18.0939 4.36525 17.9232 4.28305 17.7454C4.25085 17.6651 4.21825 17.5781 4.19805 17.4884C4.18465 17.4334 4.17625 17.3774 4.16765 17.3211L4.16225 17.2846C4.14685 17.1639 4.13245 17.0434 4.11785 16.9225L4.09845 16.763C4.07505 16.5828 4.04685 16.4048 4.01845 16.2258L4.00525 16.1423C3.99345 16.0282 3.99925 15.9097 4.00485 15.795L4.00865 15.7141C4.01425 15.5762 4.02005 15.4337 4.03725 15.2942L4.04545 15.225C4.05925 15.1078 4.07325 14.9906 4.08125 14.8728C4.08505 14.8184 4.08765 14.7642 4.09045 14.7098C4.09405 14.6353 4.09765 14.5605 4.10425 14.4858C4.13145 14.3187 4.16565 14.1726 4.20865 14.0392C4.25845 13.8809 4.31005 13.7173 4.37045 13.5597C4.41365 13.4644 4.46205 13.362 4.52305 13.2629C4.59245 13.1498 4.66525 13.0385 4.74185 12.9293C4.87685 12.7341 5.02445 12.5422 5.16705 12.3568L5.18805 12.3295C5.24925 12.254 5.31045 12.1783 5.37905 12.1115C5.44545 12.0467 5.51985 11.988 5.59185 11.9311L5.62085 11.9085C5.67185 11.8679 5.72025 11.8242 5.76865 11.7807C5.79925 11.753 5.82965 11.7257 5.86105 11.6988L5.88885 11.675C5.95885 11.6152 6.02925 11.5551 6.10205 11.4974C6.14525 11.4666 6.18925 11.4362 6.23585 11.4085C6.28565 11.3786 6.33865 11.3547 6.39145 11.3309L6.41205 11.3215C6.53125 11.2665 6.65225 11.2148 6.77305 11.1639C6.77225 11.1641 6.77125 11.1641 6.77045 11.1643C6.84725 11.1331 6.92645 11.1013 7.00745 11.0787C7.11445 11.0477 7.22305 11.0327 7.34365 11.0175C7.46985 10.999 7.60045 10.9734 7.73125 10.9477C7.83085 10.9284 7.93045 10.9087 8.03085 10.8923C8.16245 10.8703 8.27285 10.8517 8.38325 10.8254L8.47145 10.8034C8.55305 10.7829 8.63445 10.7622 8.71725 10.7466C8.74585 10.7443 8.77425 10.7433 8.80265 10.7433C8.83385 10.7433 8.86485 10.7445 8.89645 10.7466L8.94865 10.7503C8.99385 10.7537 9.03885 10.757 9.08365 10.757H9.10425C9.24965 10.7525 9.39605 10.7307 9.53765 10.7096L9.57185 10.7043C9.69045 10.6907 9.81105 10.686 9.92365 10.6829C10.0224 10.6803 10.1212 10.6782 10.22 10.6782L10.3158 10.6788C10.556 10.6835 10.8066 10.7012 11.0606 10.7314C11.1602 10.7484 11.2558 10.7737 11.3528 10.7993L11.3888 10.8087C11.503 10.84 11.6144 10.8767 11.7294 10.921C11.8552 10.9781 11.9678 11.054 12.0614 11.1207C12.0824 11.138 12.1028 11.1556 12.1208 11.1753C12.145 11.2084 12.1662 11.2427 12.185 11.2794C12.198 11.3155 12.2068 11.3521 12.2134 11.3901C12.2374 11.6208 12.2298 11.8776 12.1906 12.175C12.173 12.2977 12.1568 12.4205 12.1408 12.5438L12.1022 12.8316L12.1114 12.7992C12.0918 12.9057 12.0728 13.0112 12.0538 13.1178L12.05 13.1389C12.0278 13.2659 12.0092 13.3731 11.9684 13.4803C11.9546 13.5088 11.9398 13.5367 11.9236 13.5644C11.9104 13.5732 11.9006 13.5788 11.891 13.5835C11.8542 13.5977 11.8182 13.6122 11.7838 13.6313C11.7444 13.6537 11.7182 13.6685 11.6916 13.6816C11.679 13.6853 11.6658 13.6894 11.6528 13.6925L11.6276 13.6929C11.6156 13.6929 11.6034 13.6927 11.5914 13.6917C11.558 13.6847 11.525 13.6757 11.492 13.6668C11.4688 13.6605 11.4458 13.6543 11.4226 13.6486C11.329 13.6278 11.2332 13.6248 11.1516 13.6248C11.008 13.6248 10.8618 13.6083 10.7246 13.5913C10.67 13.5833 10.6162 13.573 10.563 13.5595C10.5378 13.5531 10.5132 13.5453 10.4888 13.5373C10.4642 13.5293 10.4398 13.5213 10.4144 13.5149C10.2996 13.4854 10.178 13.4753 10.0606 13.4655L10.021 13.4622L9.96105 13.4569C9.86085 13.448 9.76065 13.439 9.66065 13.4384L9.57325 13.438C9.47905 13.438 9.38465 13.4392 9.29045 13.4413C9.14865 13.4445 9.00485 13.4571 8.85045 13.4798C8.76945 13.4915 8.68825 13.5119 8.60825 13.5318L8.52185 13.5531C8.38385 13.586 8.25565 13.6315 8.14065 13.6886C8.09925 13.7095 8.06105 13.7366 8.02305 13.7633C7.94665 13.8179 7.88625 13.862 7.83225 13.9113C7.75165 13.9831 7.68425 14.0704 7.61925 14.1549L7.60405 14.1744L7.58005 14.2052C7.52745 14.273 7.47485 14.3407 7.42665 14.4119C7.36785 14.4981 7.32725 14.5961 7.28805 14.6909L7.27285 14.7278C7.24005 14.8065 7.21065 14.8857 7.18525 14.9662C7.14725 15.0889 7.12305 15.2016 7.11165 15.3106C7.09725 15.4448 7.11905 15.5785 7.14025 15.7082L7.14525 15.739C7.15925 15.8227 7.18145 15.9091 7.21485 16.0101C7.24365 16.0986 7.28265 16.1842 7.32025 16.2671L7.33585 16.3012L7.39225 16.4385L7.43945 16.5536C7.46725 16.6189 7.49585 16.6844 7.53105 16.7466C7.55645 16.7913 7.58605 16.8328 7.61705 16.8735C7.61765 16.8743 7.62585 16.8835 7.62725 16.8835L7.62745 16.8833C7.62865 16.8833 7.63505 16.8903 7.63525 16.8903C7.67285 16.9432 7.71245 16.9905 7.75785 17.0354C7.80885 17.0853 7.87425 17.1339 7.95765 17.184L7.99985 17.2087C8.04765 17.2366 8.09525 17.2645 8.14125 17.2945C8.17525 17.3164 8.20845 17.3394 8.24145 17.3622L8.31625 17.4133C8.43905 17.4933 8.57925 17.5537 8.72205 17.5888C8.83185 17.6149 8.94585 17.6274 9.05625 17.6397L9.10145 17.6446L9.15685 17.6561C9.20865 17.6672 9.26265 17.6789 9.31765 17.6789L9.34285 17.6781C9.39045 17.6752 9.43065 17.6688 9.46585 17.658C9.51065 17.6442 9.57085 17.6149 9.59765 17.5833C9.62105 17.5558 9.64565 17.5276 9.66165 17.4921C9.67485 17.4619 9.68705 17.433 9.69765 17.4028L9.72065 17.3433C9.73945 17.2949 9.75845 17.2468 9.77125 17.1969C9.79265 17.114 9.80525 17.0223 9.80885 16.924C9.81145 16.8305 9.80845 16.7367 9.80525 16.6429C9.80325 16.5857 9.80125 16.5286 9.80065 16.4716C9.80005 16.403 9.79665 16.3344 9.79005 16.2667C9.78345 16.2051 9.77465 16.1446 9.76485 16.084C9.76065 16.0592 9.75425 16.0343 9.74805 16.0093L9.73705 15.9637C9.73305 15.9091 9.73305 15.8535 9.73705 15.7977C9.74845 15.7287 9.76365 15.6673 9.78345 15.6103C9.80045 15.5787 9.82165 15.5485 9.84365 15.5193C9.86645 15.4931 9.89085 15.4684 9.91685 15.4454C9.92525 15.4399 9.93405 15.4348 9.94305 15.43C10.0564 15.3888 10.199 15.3426 10.3472 15.3208L10.4292 15.3098C10.4754 15.3038 10.5218 15.2979 10.567 15.289C10.5964 15.2831 10.6252 15.2761 10.654 15.2691C10.6912 15.2601 10.7282 15.2511 10.7664 15.2445C10.7968 15.2416 10.827 15.2402 10.8572 15.2402C10.9098 15.2402 10.962 15.2443 11.015 15.2508C11.0688 15.2589 11.123 15.2656 11.1782 15.2656L11.2032 15.2652C11.2422 15.2638 11.2806 15.2599 11.3194 15.2556L11.3448 15.2531C11.429 15.2771 11.5164 15.2808 11.6008 15.2847C11.6294 15.2857 11.6582 15.287 11.6866 15.289C11.7376 15.2974 11.7836 15.305 11.8312 15.3091C11.848 15.3104 11.864 15.3112 11.8798 15.3112C11.9282 15.3112 11.974 15.3046 12.027 15.2962C12.0582 15.2917 12.089 15.2823 12.1216 15.2673C12.144 15.2823 12.1684 15.2974 12.1922 15.3141C12.2018 15.3227 12.2116 15.3315 12.2204 15.341C12.2284 15.3533 12.2366 15.3668 12.2438 15.3804C12.2518 15.4062 12.2584 15.4331 12.2632 15.4602C12.2714 15.5317 12.278 15.6033 12.2844 15.6753C12.2934 15.7708 12.3066 15.8648 12.3196 15.9588C12.3504 16.2 12.3644 16.3958 12.3636 16.5752C12.3636 16.6314 12.3626 16.6871 12.3616 16.7431C12.3606 16.7991 12.3596 16.855 12.3596 16.9112C12.3588 16.9944 12.3716 17.0783 12.3838 17.1592L12.389 17.1945C12.4106 17.3583 12.433 17.528 12.4438 17.6978C12.4474 17.7571 12.4428 17.8164 12.4382 17.8757ZM2.64105 26.233C2.57445 26.2378 2.52505 26.2411 2.47805 26.2544C2.43345 26.2673 2.39225 26.2879 2.35105 26.309L2.31105 26.3287C2.29585 26.3336 2.27965 26.3373 2.26325 26.3406C2.18845 26.3486 2.11325 26.3548 2.03745 26.3582C1.99325 26.3597 1.94905 26.3599 1.90465 26.3599C1.86025 26.3601 1.81605 26.3603 1.77185 26.3621L1.71485 26.363L1.63745 26.3621L1.58565 26.3617L1.53485 26.3613L1.47685 26.3622L1.39105 26.3634C1.36845 26.3634 1.34565 26.363 1.32265 26.3621C1.29685 26.3574 1.27085 26.3502 1.24385 26.3424C1.20825 26.3248 1.17325 26.3057 1.13885 26.2852C1.13265 26.1885 1.13065 26.0904 1.12845 25.9927L1.12765 25.9553C1.12425 25.8172 1.12645 25.6887 1.13425 25.5629C1.13625 25.5218 1.14005 25.4808 1.14365 25.4401L1.15045 25.3605C1.15625 25.2878 1.15545 25.2145 1.15465 25.1419C1.15465 25.0595 1.15305 24.9764 1.15145 24.8933L1.14905 24.7445C1.14645 24.468 1.14245 24.1923 1.13105 23.9175C1.11865 23.6114 1.09725 23.3163 1.07785 23.0683C1.06105 22.8577 1.06265 22.6426 1.06445 22.4347L1.06565 22.2399L1.06585 22.1586C1.06665 21.9149 1.06745 21.6704 1.06245 21.4258L1.05485 21.1604C1.04925 20.9709 1.04345 20.781 1.04345 20.591C1.04345 20.3081 1.04185 20.0253 1.03305 19.7424C1.01985 19.353 1.02225 18.9567 1.02465 18.5732C1.02545 18.4033 1.02665 18.2333 1.02645 18.0632L1.02565 17.7934C1.02405 17.3277 1.02245 16.8461 1.04525 16.3738C1.07385 15.771 1.06725 15.2289 1.02545 14.717C1.01065 14.5324 1.02165 14.345 1.03245 14.1638C1.03765 14.0755 1.04285 13.9873 1.04525 13.8992C1.04985 13.7428 1.04325 13.5841 1.03705 13.4304C1.03205 13.3113 1.02725 13.1923 1.02725 13.0732C1.02825 12.7378 1.02385 12.4812 1.01325 12.2405C1.00765 12.1003 1.00545 11.9599 1.00345 11.8193C1.00145 11.6787 0.999446 11.5383 0.993646 11.3977L0.991246 11.3414C0.979846 11.0842 0.968246 10.8182 0.966646 10.5567C0.966446 10.4192 0.967046 10.2816 0.967846 10.1439C0.968846 10.0062 0.969646 9.86836 0.969246 9.7305L0.968646 8.95635C0.967846 8.11005 0.966846 7.23469 0.975646 6.37416L0.976246 6.26067C0.976646 6.15322 0.976846 6.04598 0.984646 5.93951C0.992446 5.84239 1.00445 5.74568 1.01665 5.64915L1.03365 5.50934C1.04945 5.37303 1.05585 5.23614 1.06225 5.09944C1.06825 4.9723 1.07425 4.84516 1.08765 4.719C1.09425 4.67864 1.10145 4.63652 1.11125 4.59674H1.12665C1.14025 4.59674 1.15465 4.59654 1.16905 4.59654C1.23125 4.59654 1.29385 4.60142 1.35625 4.60648L1.39425 4.60921L1.44485 4.61311C1.51225 4.61799 1.57925 4.62306 1.64665 4.63008L1.69485 4.63807C1.78005 4.65231 1.86805 4.66713 1.95645 4.66908L1.98565 4.66947C2.04725 4.66947 2.10845 4.66479 2.17005 4.65991L2.22805 4.65562C2.26305 4.65348 2.29825 4.65231 2.33345 4.65231C2.37485 4.65231 2.41625 4.65387 2.45725 4.6564L2.48345 4.65738L2.51865 4.6564C2.53565 4.7149 2.54585 4.77711 2.55645 4.83912L2.56645 4.89684C2.52945 4.96509 2.50725 5.02846 2.50185 5.10666L2.49845 5.1636C2.48345 5.41222 2.46765 5.66904 2.47005 5.92176C2.47165 6.17038 2.47825 6.41823 2.48785 6.66588C2.49385 6.8172 2.48925 6.97145 2.48485 7.12043C2.48185 7.22573 2.47865 7.33103 2.47905 7.43633L2.48065 7.55469C2.48225 7.64692 2.48385 7.73897 2.47985 7.83042C2.47405 7.96439 2.46845 8.09816 2.46605 8.23212C2.46405 8.34951 2.47005 8.4669 2.47585 8.5841C2.48265 8.71982 2.48965 8.86002 2.48385 8.99827C2.47825 9.13126 2.47405 9.26445 2.47245 9.39822C2.47145 9.48266 2.47545 9.56729 2.47925 9.65191C2.48185 9.70476 2.48425 9.7576 2.48545 9.81006C2.49165 10.0283 2.48785 10.2498 2.48425 10.4643L2.48225 10.5797C2.47745 10.8504 2.47325 11.1214 2.47085 11.3923L2.46985 11.6686C2.46925 11.8529 2.46865 12.0368 2.46605 12.2208C2.46465 12.3181 2.46105 12.4155 2.45725 12.5126C2.45065 12.6797 2.44385 12.8526 2.45125 13.0231C2.47805 13.6176 2.47445 14.2102 2.46845 14.6599C2.46705 14.7675 2.45945 14.8754 2.45185 14.983L2.44625 15.0637C2.43805 15.1993 2.43165 15.3354 2.42665 15.4709L2.42085 15.6462C2.41425 15.8519 2.40745 16.0645 2.38825 16.2729C2.37445 16.418 2.36385 16.5639 2.35805 16.7096C2.35525 16.7745 2.35405 16.8396 2.35285 16.9047C2.35145 16.9699 2.35025 17.035 2.34745 17.0999C2.33705 17.3096 2.32805 17.5198 2.31885 17.7298L2.30985 17.938C2.28865 18.4123 2.28345 18.9345 2.29345 19.5347C2.29685 19.7225 2.30805 19.9095 2.31925 20.0967C2.32425 20.1809 2.32925 20.2654 2.33345 20.3496C2.34225 20.5146 2.34945 20.6792 2.35645 20.8435L2.37105 21.1751C2.37665 21.2909 2.38485 21.4065 2.39325 21.5222C2.40345 21.6645 2.41365 21.807 2.41845 21.95C2.42745 22.2177 2.44145 22.4845 2.45785 22.7524C2.46605 22.8852 2.47325 23.0176 2.47745 23.1512L2.48065 23.2772C2.48285 23.3606 2.48465 23.4443 2.48965 23.5281C2.49445 23.6159 2.50005 23.7036 2.50585 23.7916C2.51685 23.9587 2.52785 24.126 2.53205 24.2937C2.53385 24.3672 2.53805 24.4403 2.54205 24.5136C2.54585 24.5803 2.54985 24.6466 2.55165 24.7135C2.55585 24.86 2.55745 25.0058 2.55425 25.1523C2.55085 25.2855 2.55085 25.4177 2.55165 25.5507C2.55225 25.5801 2.55445 25.6094 2.55685 25.6382C2.55865 25.6638 2.56085 25.6893 2.56145 25.7148L2.56265 25.7595C2.56385 25.8338 2.56505 25.904 2.60345 25.9763C2.60845 25.9859 2.61485 25.9947 2.62145 26.0034C2.61945 26.0329 2.62245 26.0625 2.63025 26.0906C2.63685 26.1156 2.64545 26.1403 2.65405 26.1649C2.66045 26.1836 2.66705 26.2023 2.67265 26.2213L2.64105 26.233ZM1.64245 38.429C1.60585 38.429 1.56905 38.4273 1.53185 38.424L1.52925 38.4257L1.52945 38.424L1.52425 38.423C1.51205 38.4208 1.49925 38.4185 1.48725 38.416C1.47785 38.3795 1.47025 38.3407 1.46265 38.3019C1.45785 38.2767 1.45285 38.2518 1.44705 38.227L1.42625 38.1416C1.41085 38.0796 1.39545 38.0176 1.38425 37.9546C1.35965 37.7504 1.36145 37.5404 1.36325 37.3374C1.36385 37.2622 1.36445 37.1867 1.36385 37.1114C1.36165 36.8146 1.36545 36.5178 1.36905 36.2212L1.37045 36.122C1.37325 35.8901 1.37345 35.6581 1.37365 35.4262C1.37385 34.9953 1.37425 34.5497 1.39245 34.1121L1.39645 34.0103C1.40225 33.8746 1.40785 33.7387 1.40705 33.603C1.40705 33.4326 1.40705 33.2621 1.40545 33.0917C1.40425 32.9035 1.39705 32.7161 1.38985 32.5287C1.38445 32.3842 1.37905 32.2397 1.37605 32.0951C1.37025 31.8002 1.37625 31.5013 1.38225 31.2121L1.38425 31.1121C1.38805 30.9159 1.38785 30.7199 1.38785 30.5237C1.38785 30.3835 1.38765 30.2437 1.38905 30.1035C1.39405 29.6039 1.39905 29.0878 1.39245 28.5802C1.38925 28.3858 1.39445 28.1913 1.39965 27.9967L1.40385 27.8251C1.40965 27.5592 1.41865 27.2945 1.43005 27.0286H1.44245C1.53305 27.0286 1.62445 27.0178 1.69465 27.0083L1.68965 27.0307C1.68305 27.0966 1.67905 27.1631 1.67505 27.229L1.67265 27.2704L1.66245 27.4328C1.64585 27.6955 1.62925 27.9573 1.62105 28.2208C1.61445 28.4125 1.62205 28.6077 1.62925 28.7962C1.63405 28.9158 1.63865 29.0351 1.63985 29.1548C1.64225 29.4758 1.64645 29.796 1.65305 30.117C1.66025 30.4389 1.66845 30.7599 1.68245 31.0809C1.68945 31.2421 1.68725 31.4055 1.68485 31.5635C1.68265 31.7169 1.68045 31.8704 1.68645 32.0241C1.68985 32.1167 1.69785 32.2093 1.70585 32.3019C1.71125 32.3653 1.71665 32.4291 1.72085 32.4927C1.72965 32.6327 1.73565 32.7727 1.74165 32.9127L1.74525 32.9969C1.75825 33.3076 1.77145 33.6289 1.76405 33.9472C1.76285 34.008 1.75945 34.0688 1.75625 34.1299C1.75125 34.2254 1.74605 34.3216 1.74865 34.4173C1.75005 34.4869 1.75245 34.5567 1.75465 34.6265C1.75745 34.7112 1.76025 34.7956 1.76165 34.88C1.76725 35.2028 1.76725 35.5247 1.76665 35.8472C1.76605 36.0276 1.77065 36.2076 1.77505 36.3878C1.77825 36.5178 1.78145 36.6481 1.78285 36.7784L1.78485 37.0077C1.78645 37.2257 1.78785 37.4513 1.80245 37.6722C1.81065 37.7912 1.81385 37.9088 1.81385 38.0275C1.81385 38.0585 1.81565 38.0901 1.81745 38.1215C1.82005 38.1675 1.82245 38.214 1.81965 38.2592C1.81325 38.3089 1.80885 38.3627 1.82125 38.4207C1.76305 38.4248 1.70305 38.429 1.64245 38.429ZM1.52765 4.13888L1.52705 4.13439C1.50845 3.88167 1.49885 3.66112 1.50425 3.43882L1.50645 3.37097L1.50845 3.3033C1.54585 3.31656 1.58685 3.32358 1.62945 3.32923C1.62765 3.35907 1.62845 3.39027 1.63165 3.42225C1.64245 3.52424 1.65565 3.60223 1.67425 3.67497L1.68165 3.70051L1.69785 3.81225L1.71185 3.90741C1.72245 3.97585 1.73545 4.04372 1.75365 4.1108L1.76265 4.14199C1.70985 4.13458 1.67345 4.13303 1.63705 4.13303C1.60045 4.13303 1.56385 4.13458 1.52745 4.13692L1.52765 4.13888ZM0.971646 1.31976C0.938046 1.44105 0.920646 1.56839 0.903846 1.69143C0.878846 1.86225 0.872646 1.99543 0.884046 2.12355L0.887046 2.15514L0.889246 2.18108C0.857246 2.15144 0.825246 2.12082 0.795446 2.08787C0.768646 2.04848 0.744246 2.00792 0.723046 1.96404C0.704246 1.91022 0.690446 1.85523 0.680646 1.79965C0.671046 1.67992 0.672446 1.56234 0.684846 1.44027C0.708646 1.31293 0.735846 1.21115 0.770646 1.11969C0.824646 1.00893 0.891646 0.9009 0.975246 0.789555C1.06905 0.682305 1.18245 0.55809 1.31085 0.44967C1.35345 0.41925 1.39945 0.392925 1.45485 0.367185C1.50625 0.348855 1.55765 0.3315 1.61225 0.32019C1.69365 0.31083 1.77605 0.30342 1.85865 0.29718C1.88325 0.29796 1.89305 0.30108 1.90265 0.3042C1.85945 0.31239 1.81765 0.328185 1.76945 0.34905C1.72565 0.367575 1.68385 0.394875 1.64425 0.42081C1.54585 0.484185 1.47785 0.53781 1.42145 0.594165L1.38625 0.62829C1.32685 0.685425 1.26565 0.744705 1.21385 0.80847C1.17065 0.862485 1.13565 0.91143 1.10565 0.975585C1.08125 1.02726 1.05905 1.07991 1.03785 1.13236C1.01265 1.19398 0.989646 1.256 0.971646 1.31976ZM35.904 15.7445C35.8944 15.711 35.8754 15.6798 35.8494 15.6544C35.8534 15.6152 35.8442 15.5754 35.8236 15.5409C35.795 15.4939 35.7552 15.4711 35.7042 15.4516L35.4614 15.3586L35.2188 15.266L35.1632 15.2418C35.1114 15.219 35.059 15.196 35.0054 15.1759C34.9596 15.1581 34.9132 15.1417 34.8666 15.1256L34.762 15.0883C34.6624 15.0448 34.5654 14.9953 34.4684 14.9456C34.4088 14.9152 34.3494 14.8849 34.2892 14.8557C34.102 14.7664 33.914 14.6821 33.7236 14.5993C33.544 14.5218 33.365 14.4423 33.187 14.3602C32.9852 14.2678 32.775 14.1835 32.5896 14.1092C32.597 14.1143 32.6048 14.1184 32.6128 14.1223L32.5174 14.079C32.325 13.9983 32.1328 13.9175 31.9382 13.8415C31.8608 13.8113 31.7788 13.7902 31.6994 13.7697C31.6652 13.761 31.6312 13.7522 31.5974 13.7426C31.5 13.7157 31.3958 13.68 31.2692 13.6305C31.0894 13.5533 30.9114 13.472 30.7334 13.3901C30.61 13.3339 30.5048 13.2893 30.3932 13.2543C30.304 13.2265 30.2142 13.1994 30.1234 13.1746C30.08 13.1627 30.0374 13.149 29.9946 13.1356C29.947 13.1208 29.8996 13.1058 29.8514 13.0927C29.759 13.0687 29.6658 13.048 29.5726 13.0297C29.4008 12.9956 29.2134 12.9384 28.983 12.8497C28.846 12.7922 28.7118 12.7368 28.5744 12.6904C28.4316 12.6411 28.288 12.5978 28.1478 12.5621C27.9966 12.5239 27.8438 12.488 27.6918 12.4529L27.6352 12.4398C27.5042 12.4092 27.369 12.3776 27.241 12.3295C26.9292 12.2142 26.607 12.0953 26.28 12.0069L26.1648 11.9759C26.049 11.9449 25.9336 11.9141 25.8202 11.8771L25.7576 11.8568C25.6118 11.8094 25.4662 11.7622 25.3226 11.7113C25.1492 11.6509 24.9784 11.5846 24.8074 11.5185L24.74 11.4923L24.598 11.4368C24.4658 11.3847 24.3292 11.3305 24.1908 11.2899C23.9014 11.2055 23.595 11.1797 23.2986 11.1548C23.1906 11.1458 23.0828 11.1366 22.9754 11.1249C22.7114 11.0748 22.4978 11.0247 22.3034 10.9672C22.1818 10.9305 22.0608 10.8941 21.9398 10.8551C21.8288 10.8174 21.7186 10.7761 21.609 10.7347L21.2332 10.5784L20.8584 10.4224L20.8808 10.4356C20.7146 10.3637 20.547 10.2966 20.3794 10.2305C20.2694 10.1868 20.1574 10.1484 20.0458 10.11L19.9284 10.0694C19.618 9.96002 19.2868 9.84438 18.9486 9.73967L18.632 9.641C18.4268 9.57684 18.2216 9.51249 18.0156 9.45204C17.7062 9.36136 17.3862 9.28726 17.0766 9.2157L17.0006 9.19796C16.6626 9.12035 16.335 9.03396 16.0268 8.94055C15.777 8.86626 15.529 8.77091 15.2888 8.67887L15.0898 8.60301C14.9198 8.53886 14.7426 8.48523 14.5712 8.43336C14.4272 8.38988 14.2832 8.34639 14.1412 8.29628L13.9804 8.23914L13.6584 8.12409L13.565 8.09016C13.4518 8.04882 13.3346 8.00592 13.2168 7.97277C13.0952 7.93806 12.972 7.90725 12.849 7.87644C12.693 7.83744 12.537 7.79844 12.3836 7.75125C12.1116 7.6674 11.8202 7.57419 11.5324 7.4607C11.3582 7.38913 11.1818 7.32225 11.0058 7.25536C10.9028 7.21636 10.7998 7.17698 10.6974 7.137L10.591 7.09449C10.4808 7.04984 10.3666 7.00382 10.2518 6.96735C10.1202 6.92543 9.97965 6.88662 9.80985 6.8447L9.74225 6.82851C9.62085 6.79984 9.49925 6.77099 9.37925 6.73862C9.24005 6.70176 9.10525 6.65632 8.94565 6.59938C8.65365 6.49447 8.36485 6.38449 8.08685 6.27198C7.97425 6.22518 7.86225 6.17955 7.74865 6.13665C7.62445 6.09024 7.49945 6.045 7.37445 5.99937L7.22165 5.94263C7.04485 5.87672 6.86205 5.80827 6.67645 5.75425C6.44525 5.68776 6.21185 5.62692 5.97845 5.56647L5.90665 5.54775L5.72445 5.50153C5.56265 5.46098 5.39525 5.41886 5.23365 5.36523C5.16725 5.33696 5.10145 5.30712 5.03545 5.27729C4.94865 5.23809 4.86185 5.19889 4.77385 5.16223C4.72505 5.14195 4.67685 5.12089 4.62865 5.09944C4.57085 5.0739 4.51305 5.04836 4.45425 5.02437C4.36945 4.99064 4.28445 4.96879 4.19425 4.94559L3.98705 4.89216C3.89845 4.86896 3.80985 4.84575 3.72105 4.82372C3.68325 4.81416 3.64525 4.80597 3.60745 4.79759C3.53665 4.78218 3.46605 4.76678 3.39685 4.74396C3.36445 4.69852 3.31385 4.66206 3.25545 4.64197C3.23265 4.63398 3.20965 4.62677 3.18585 4.62209C3.17425 4.49475 3.14545 4.39725 3.09405 4.30774C3.05925 4.24808 3.00925 4.18938 2.94985 4.13809C2.88165 4.07921 2.81585 4.04449 2.74865 4.03182C2.71745 4.02617 2.69045 4.02305 2.66345 4.02148L2.66285 3.93393C2.65985 3.83467 2.65705 3.73542 2.65885 3.63616L2.65965 3.58995C2.66145 3.51195 2.66285 3.43356 2.65885 3.35576C2.65685 3.30408 2.64905 3.25182 2.64125 3.19995L2.63685 3.1709C2.69365 3.16407 2.75645 3.14067 2.81145 3.10654C2.90685 3.04707 2.99585 2.97082 3.06845 2.88639C3.17085 2.76783 3.22945 2.63757 3.28545 2.50341C3.33485 2.38485 3.37045 2.25478 3.38845 2.12686C3.39985 2.04535 3.41145 1.96092 3.41225 1.87746C3.41225 1.8486 3.41045 1.81896 3.40805 1.78952C3.41225 1.75071 3.41625 1.71093 3.41945 1.67193C3.43245 1.52451 3.41365 1.38431 3.39165 1.25463L3.38625 1.22128C3.37945 1.17819 3.37245 1.13451 3.36145 1.092C3.34165 1.01888 3.31085 0.949065 3.28125 0.8814C3.23265 0.77376 3.15545 0.685425 3.08745 0.607815C3.05385 0.570375 3.01945 0.5343 2.98425 0.4992L2.93985 0.451035C2.91905 0.428025 2.89845 0.40521 2.87645 0.38376L2.84805 0.34359C2.78925 0.261885 2.73425 0.207285 2.66445 0.161265C2.62605 0.13572 2.58505 0.11349 2.54245 0.093405C2.48145 0.06591 2.42585 0.049725 2.35065 0.03744C2.30645 0.029835 2.26445 0.023985 2.22325 0.023985C2.18465 0.023985 2.14965 0.029055 2.11605 0.039975L2.07105 0.03276C2.03605 0.027885 1.98605 0.02223 1.93545 0.01989C1.91605 0.00702 1.89225 0 1.86745 0H1.85845L1.82545 0.002535C1.64665 0.01755 1.46205 0.03276 1.29165 0.097305C1.20625 0.129285 1.13665 0.16185 1.07225 0.200265C1.00605 0.238485 0.947646 0.2886 0.891046 0.33696L0.821046 0.39507C0.789846 0.42081 0.758446 0.446355 0.728846 0.47307C0.672246 0.52377 0.619246 0.578175 0.566246 0.63219C0.484646 0.71565 0.380046 0.827775 0.292846 0.958425C0.140846 1.18794 0.0416463 1.47849 0.00584632 1.79887C-0.0279537 2.10736 0.0862463 2.4297 0.311046 2.66097C0.374046 2.72571 0.450046 2.79513 0.543246 2.87294C0.637846 2.95113 0.735646 3.03205 0.855046 3.08139C0.905846 3.10284 0.955646 3.12273 1.00725 3.14106C0.986446 3.22959 0.973846 3.32768 0.967446 3.43863C0.962846 3.5375 0.966646 3.63656 0.970646 3.7362L0.971446 3.76233L0.986246 4.06263L0.955646 4.06634L0.955446 4.06458C0.861246 4.07648 0.783446 4.09753 0.710846 4.16227C0.662646 4.20517 0.626246 4.26251 0.602246 4.33271C0.574246 4.41539 0.561046 4.5047 0.548246 4.59128C0.529246 4.72134 0.519046 4.84692 0.508646 4.9725C0.501246 5.0622 0.494046 5.15209 0.483646 5.24121C0.483846 5.24082 0.484046 5.24062 0.484046 5.24023C0.477446 5.28664 0.470846 5.33325 0.465046 5.37986L0.450846 5.48028C0.433846 5.59981 0.417046 5.71935 0.403646 5.83947C0.391046 5.95432 0.388246 6.07445 0.394646 6.21758C0.408046 6.51865 0.415246 6.79087 0.416646 7.04906C0.420846 7.61143 0.422446 8.17381 0.421646 8.73639L0.421246 9.01758C0.420446 9.4846 0.419646 9.95183 0.421646 10.4187C0.423046 10.6646 0.433446 10.9284 0.455046 11.2735C0.467046 11.4547 0.474446 11.6356 0.481846 11.8164C0.486046 11.92 0.490246 12.0233 0.495246 12.1269C0.509246 12.4012 0.522046 12.6701 0.526246 12.941L0.526646 12.9815C0.528046 13.1028 0.529446 13.2245 0.536846 13.3448C0.545846 13.4868 0.550046 13.6284 0.551646 13.7701C0.552446 13.9162 0.541246 14.0644 0.530246 14.2075C0.520246 14.3405 0.509846 14.4778 0.509046 14.6129C0.508446 14.7044 0.515046 14.7958 0.521646 14.8873C0.524846 14.9304 0.528046 14.9737 0.530246 15.0171C0.539246 15.1605 0.542446 15.3038 0.545846 15.4471L0.547846 15.5374C0.553046 15.7698 0.558446 16.0101 0.549046 16.2451C0.536646 16.558 0.534246 16.8698 0.533446 17.1064C0.531046 17.6504 0.531046 18.1954 0.533446 18.7395L0.534046 18.9864C0.534046 19.1981 0.534046 19.4099 0.541646 19.6215C0.552446 19.9035 0.561446 20.1862 0.566246 20.4684L0.567246 20.5873C0.567846 20.6799 0.568646 20.7724 0.572046 20.865C0.574846 20.9432 0.578646 21.0214 0.582646 21.0992L0.590846 21.2722C0.601446 21.5337 0.602246 21.8004 0.602846 22.058L0.603046 22.114C0.603846 22.2472 0.604646 22.3809 0.604646 22.5139L0.604046 22.6296C0.603246 22.7298 0.602446 22.8304 0.607046 22.93C0.611246 23.0151 0.616446 23.1003 0.621446 23.1851C0.633046 23.3787 0.645046 23.5792 0.645646 23.7765C0.646646 23.9577 0.643246 24.1385 0.640046 24.3192L0.635646 24.5907L0.634846 24.7299C0.634046 24.9577 0.633246 25.1934 0.603846 25.4231C0.575446 25.6443 0.555246 25.8816 0.540046 26.1704C0.536846 26.2261 0.534446 26.2819 0.534446 26.3377C0.534446 26.3921 0.541046 26.45 0.554046 26.5103C0.571446 26.592 0.634046 26.6659 0.679446 26.7144C0.716646 26.7542 0.763646 26.7875 0.809046 26.8195L0.844046 26.8445L0.907846 26.8891C0.948846 26.9155 0.989046 26.9369 1.03245 26.9562C1.01125 27.3784 1.00285 27.7243 1.00505 28.0441C1.00645 28.3202 1.02005 28.6001 1.03345 28.8705L1.04105 29.0289C1.07385 29.7133 1.07425 30.4161 1.07205 31.0212C1.07145 31.1161 1.06545 31.2113 1.05925 31.3069C1.05505 31.3736 1.05065 31.4408 1.04825 31.5079C1.04165 31.6791 1.03685 31.8505 1.03205 32.0225C1.02665 32.2319 1.03205 32.4455 1.03725 32.6522C1.04025 32.7674 1.04305 32.8827 1.04425 32.9977L1.04485 33.042C1.04865 33.362 1.05265 33.6927 1.04025 34.0179C1.02785 34.3465 1.02705 34.68 1.02625 35.0027C1.02545 35.5087 1.03125 36.0144 1.03685 36.5196C1.03925 36.7507 1.03925 36.9808 1.03685 37.2109C1.03525 37.431 1.05025 37.6525 1.08265 37.8877L1.08885 37.9363C1.09705 38.0022 1.10525 38.0679 1.11785 38.133C1.12365 38.165 1.13005 38.197 1.13665 38.2288C1.14585 38.2732 1.15485 38.3179 1.16205 38.3624L1.16825 38.4084C1.17385 38.4509 1.17965 38.494 1.18805 38.5363C1.21385 38.6582 1.31345 38.7321 1.39265 38.7726C1.51885 38.8374 1.65665 38.8709 1.82645 38.8779C1.84505 38.8787 1.86365 38.8791 1.88205 38.8791C1.99665 38.8791 2.11805 38.8662 2.26405 38.8389C2.38065 38.8171 2.50545 38.7644 2.60645 38.6942C2.71605 38.6182 2.78945 38.5148 2.83125 38.3785C2.85565 38.3001 2.86605 38.2136 2.87585 38.1297L2.88185 38.0804C2.90185 37.9236 2.90005 37.7674 2.89585 37.6356L2.89285 37.5129C2.89025 37.3905 2.88745 37.2678 2.88185 37.1448C2.87825 37.0652 2.87385 36.9858 2.86925 36.9061C2.86485 36.8254 2.86025 36.7446 2.85665 36.6635C2.85245 36.5797 2.84585 36.4956 2.83905 36.4118C2.83345 36.3431 2.82805 36.2743 2.82385 36.2057C2.81645 36.0721 2.81185 35.9387 2.80705 35.8051L2.80425 35.7252C2.80165 35.6462 2.79625 35.5668 2.79085 35.4879C2.78585 35.4147 2.78085 35.3418 2.77825 35.2687C2.77245 35.1037 2.76425 34.9397 2.75365 34.7747C2.74225 34.6074 2.73645 34.4403 2.73065 34.2722C2.72725 34.1771 2.72205 34.0825 2.71685 33.9877L2.70705 33.7974C2.69165 33.4626 2.69525 33.1215 2.69965 32.8279C2.70865 32.1296 2.73985 31.4434 2.76585 30.9233C2.77405 30.7663 2.78125 30.6091 2.78825 30.4518C2.79565 30.2946 2.80265 30.1378 2.81085 29.9809C2.81725 29.8529 2.82185 29.7246 2.82625 29.5967L2.82965 29.5006C2.83225 29.436 2.83665 29.3717 2.84105 29.3073C2.84665 29.2268 2.85225 29.1461 2.85425 29.0655C2.85805 28.929 2.85065 28.7902 2.84345 28.656C2.83845 28.5615 2.83345 28.4665 2.83205 28.3715C2.82885 28.1325 2.82725 27.8936 2.82625 27.6545L2.82645 27.4899C2.82685 27.3129 2.82725 27.1298 2.81665 26.9496L2.81465 26.9125C2.81065 26.8351 2.80665 26.755 2.78625 26.6807C2.80405 26.675 2.82365 26.6663 2.84165 26.6549C2.87085 26.6362 2.89705 26.614 2.92385 26.5916L2.98565 26.5457C3.00165 26.5331 3.01365 26.5153 3.02525 26.4984L3.03765 26.4808C3.05625 26.4576 3.07385 26.4346 3.08525 26.4079C3.10325 26.3681 3.12045 26.3297 3.13105 26.2872C3.14005 26.2546 3.15065 26.223 3.16365 26.192C3.17525 26.1633 3.18305 26.1323 3.18745 26.0967C3.22025 26.0914 3.25445 26.0816 3.28885 26.0721C3.40885 26.0403 3.52985 26.014 3.65145 25.9884C3.80365 25.957 3.95005 25.9015 4.09165 25.8476C4.17385 25.8162 4.25605 25.785 4.33965 25.7583C4.43105 25.7287 4.52265 25.7002 4.61425 25.6716C4.75565 25.6275 4.89725 25.5832 5.03765 25.536C5.12365 25.507 5.21005 25.4797 5.29645 25.4522L5.41665 25.4142C5.54325 25.3726 5.66705 25.3192 5.78685 25.2675C5.87845 25.2324 5.97085 25.2051 6.06465 25.177L6.12985 25.1575L6.32585 25.099L6.52205 25.0405C6.57505 25.0249 6.62925 25.0132 6.68325 25.0017C6.74865 24.9877 6.81405 24.9736 6.87745 24.9528C6.96885 24.9235 7.05685 24.8832 7.14205 24.844C7.17885 24.8272 7.21565 24.8102 7.25265 24.7943C7.37205 24.7478 7.49825 24.7112 7.62025 24.6759C7.69605 24.6537 7.77225 24.6316 7.84725 24.607C8.05485 24.54 8.26245 24.4748 8.47225 24.416L8.63945 24.3705L8.80645 24.3251C8.88145 24.3042 8.95525 24.2763 9.02865 24.2484L9.12045 24.2143C9.22905 24.1743 9.33925 24.1379 9.44965 24.1012C9.50525 24.0821 9.56085 24.062 9.61565 24.0398C9.65965 24.0221 9.70285 24.0024 9.74605 23.9825L9.78485 23.9649C9.91685 23.9179 10.0574 23.8855 10.193 23.8542L10.2616 23.8384C10.4124 23.8035 10.5594 23.7508 10.7016 23.6995L10.7544 23.6806C10.8352 23.6517 10.9168 23.626 10.9984 23.6001C11.0862 23.5724 11.1738 23.5447 11.2602 23.5133C11.3574 23.4782 11.4522 23.4351 11.547 23.3922C11.5782 23.378 11.6086 23.3618 11.639 23.3456C11.6662 23.3312 11.6934 23.3169 11.7212 23.3037C11.8086 23.2729 11.9008 23.2508 11.99 23.2298C12.033 23.2194 12.076 23.2091 12.1188 23.198C12.2846 23.1549 12.4498 23.1095 12.614 23.0601L12.789 23.0086C12.8752 22.9835 12.9616 22.9583 13.0478 22.9316C13.0958 22.9172 13.1426 22.899 13.1894 22.8811L13.2572 22.8554C13.3372 22.8251 13.4164 22.7988 13.4988 22.7756C13.586 22.7516 13.674 22.7306 13.7618 22.7095C13.837 22.6916 13.912 22.6736 13.9866 22.6539C14.136 22.614 14.2834 22.5687 14.4312 22.5237C14.5054 22.5007 14.5626 22.4817 14.6198 22.4628L14.6902 22.4394C14.7644 22.4164 14.8404 22.3989 14.9154 22.3821C15.0796 22.3454 15.249 22.3072 15.4116 22.2577C15.6192 22.1949 15.8274 22.1344 16.0366 22.0771C16.1854 22.0358 16.3404 22.0116 16.4902 21.9884L16.6328 21.9654C16.8184 21.9342 17.0134 21.885 17.2466 21.8107C17.403 21.7614 17.5554 21.6932 17.7026 21.6273C17.7558 21.6035 17.8088 21.5797 17.8622 21.5569C18.0056 21.5009 18.1252 21.4627 18.2384 21.4373L18.323 21.4184C18.4498 21.3901 18.576 21.3621 18.701 21.3273C18.8618 21.2835 19.0088 21.2371 19.1504 21.1854C19.2976 21.1316 19.4446 21.0768 19.5892 21.0173L19.5754 21.0206C19.7108 20.9697 19.845 20.9161 19.9806 20.8669C20.1342 20.8108 20.2952 20.7634 20.434 20.7234L20.4964 20.7053C20.781 20.623 21.0754 20.5378 21.3606 20.436L21.4442 20.4058C21.5642 20.3625 21.6882 20.3174 21.8132 20.2837C21.953 20.2467 22.1076 20.2112 22.2852 20.1755C22.4444 20.1437 22.6136 20.1082 22.7814 20.0583C22.8876 20.0273 22.9924 19.9898 23.097 19.9524L23.2006 19.9157C23.2986 19.8822 23.4024 19.8451 23.5008 19.7968C23.533 19.781 23.5644 19.7629 23.5958 19.7449C23.6302 19.7248 23.665 19.7049 23.7008 19.6878C23.8046 19.6519 23.9152 19.6324 24.0222 19.6135L24.0778 19.6035C24.2092 19.5794 24.382 19.5454 24.5536 19.4975C24.8234 19.4212 25.1066 19.3294 25.419 19.2171L25.4834 19.1937C25.589 19.155 25.6946 19.1168 25.8012 19.0815C25.8518 19.0648 25.902 19.0466 25.952 19.0283C26.0254 19.0012 26.099 18.9743 26.1738 18.9526C26.2056 18.9431 26.2378 18.9349 26.2702 18.9265C26.301 18.9185 26.3318 18.9105 26.3626 18.9015C26.4264 18.8817 26.4902 18.8579 26.5522 18.8331C26.6378 18.7996 26.7222 18.7631 26.8064 18.7266L26.9446 18.6674C27.0888 18.6153 27.243 18.5925 27.392 18.5706C27.4676 18.5597 27.5432 18.5484 27.6182 18.5336C27.7878 18.4993 27.9674 18.4591 28.135 18.3807L28.2652 18.3208C28.3304 18.2908 28.3958 18.2608 28.461 18.2315C28.5262 18.2071 28.5936 18.1869 28.6612 18.167L28.7624 18.1362L28.8758 18.0993C28.9596 18.0722 29.0432 18.0447 29.1282 18.0223C29.2004 18.003 29.2734 17.9878 29.346 17.9724C29.4 17.9611 29.4538 17.9499 29.5074 17.9369C29.63 17.9086 29.7594 17.8714 29.9144 17.8199C29.9718 17.8008 30.0284 17.7793 30.0848 17.7577C30.1448 17.7349 30.2046 17.712 30.2658 17.6924C30.3844 17.6539 30.5046 17.6222 30.6332 17.5952L30.7156 17.5783C30.8094 17.5594 30.9028 17.5404 30.9952 17.5139C31.1044 17.4825 31.2188 17.4412 31.3444 17.388C31.492 17.3318 31.6616 17.2885 31.848 17.2598L32.0218 17.2382C32.1246 17.2259 32.2272 17.2132 32.33 17.1984C32.4754 17.1779 32.6288 17.1465 32.7984 17.1029C32.9724 17.058 33.1264 17.0075 33.2694 16.9482C33.3508 16.9145 33.4302 16.8774 33.51 16.84C33.5678 16.8129 33.6256 16.786 33.6844 16.7603L33.7058 16.7487L33.7066 16.7507C33.7746 16.724 33.843 16.6973 33.9092 16.6655L33.9694 16.6362C34.0014 16.6208 34.0334 16.6052 34.066 16.5906C34.1438 16.5627 34.2244 16.5415 34.305 16.5204C34.3468 16.5093 34.3886 16.4982 34.4302 16.4863C34.502 16.466 34.5734 16.4447 34.6448 16.4233L34.7938 16.3796C34.9404 16.3353 35.0804 16.2854 35.2098 16.2312C35.2504 16.2137 35.2898 16.1934 35.3292 16.1731L35.3774 16.1483C35.4322 16.1222 35.4876 16.0967 35.5432 16.0711C35.6134 16.0448 35.6844 16.0218 35.7554 15.9988C35.8712 15.9625 35.935 15.8533 35.904 15.7445Z" clip-rule="evenodd"/></svg>